<svg xmlns="http://www.w3.org/2000/svg" viewBox="0 0 512 512">
  <defs>
    <linearGradient id="felt" x1="0" y1="0" x2="0" y2="1">
      <stop offset="0" stop-color="#25905b"/>
      <stop offset="1" stop-color="#1a6841"/>
    </linearGradient>
    <linearGradient id="tile" x1="0" y1="0" x2="0" y2="1">
      <stop offset="0" stop-color="#fffdf6"/>
      <stop offset="1" stop-color="#efe6d0"/>
    </linearGradient>
    <linearGradient id="wood" x1="0" y1="0" x2="0" y2="1">
      <stop offset="0" stop-color="#b07a43"/>
      <stop offset="1" stop-color="#7f522a"/>
    </linearGradient>
  </defs>
  <rect width="512" height="512" rx="112" fill="url(#felt)"/>
  <!-- tile with its bottom edge -->
  <rect x="112" y="78" width="288" height="320" rx="40" fill="#c9bfa8"/>
  <rect x="112" y="64" width="288" height="320" rx="40" fill="url(#tile)"/>
  <!-- "101" drawn as shapes -->
  <g fill="#c62828">
    <path d="M138 158 L172 136 H198 V300 H166 V176 L138 192 Z"/>
    <path d="M256 136 C226 136 214 166 214 218 C214 270 226 300 256 300 C286 300 298 270 298 218 C298 166 286 136 256 136 Z M256 164 C267 164 271 182 271 218 C271 254 267 272 256 272 C245 272 241 254 241 218 C241 182 245 164 256 164 Z" fill-rule="evenodd"/>
    <path d="M314 158 L348 136 H374 V300 H342 V176 L314 192 Z"/>
  </g>
  <!-- rack ledge in front of the tile -->
  <rect x="56" y="350" width="400" height="84" rx="22" fill="url(#wood)"/>
  <rect x="56" y="350" width="400" height="14" rx="7" fill="#c48d55" opacity="0.6"/>
</svg>
